Coordinates
version=1
nRows=13
nColumns=18
inDegrees=yes

Units are S.I. units (second, meters, Newtons, ...)
If the header above contains a line with 'inDegrees', this indicates whether rotational values are in degrees (yes) or radians (no).

endheader
time	ground_thorax_rot_x	ground_thorax_rot_y	ground_thorax_rot_z	ground_thorax_tx	ground_thorax_ty	ground_thorax_tz	clav_prot	clav_elev	scapula_abduction	scapula_elevation	scapula_upward_rot	scapula_winging	plane_elv	shoulder_elv	axial_rot	elbow_flexion	pro_sup
      0.84000000	     -1.72364532	    -12.35861366	    -24.99017500	      0.00567028	     -0.01498455	      0.03876800	    -23.27097192	    -13.64560410	    -19.15863946	     -9.39806047	      6.51913239	     33.98193778	     -5.37539356	     32.36009301	      8.49253416	      0.00156114	     63.92270238
      0.86000000	     -1.94599897	    -12.43872196	    -25.28827625	      0.00769701	     -0.01489129	      0.03925610	    -23.24133210	    -13.61790035	    -19.20047806	     -9.33826994	      6.37494764	     33.99174074	     -6.98142889	     31.88417069	      9.96201310	      0.00156114	     63.92270238
      0.88000000	     -2.10556381	    -12.49458769	    -25.77956887	      0.00952543	     -0.01551247	      0.03976947	    -23.26258553	    -13.27136289	    -19.46135542	     -9.03537583	      6.19107652	     33.89842405	     -7.72336626	     31.67608206	      9.87765964	      0.00156114	     63.92270238
      0.90000000	     -2.23675518	    -12.56017009	    -26.17093188	      0.01143307	     -0.01572776	      0.04028144	    -23.33632538	    -13.08387989	    -19.70075746	     -8.87204885	      6.08090062	     33.86930643	     -8.99688000	     31.40198398	     10.04746273	      0.00156114	     63.92270238
      0.92000000	     -2.48489545	    -12.72202515	    -26.49844506	      0.01345174	     -0.01579659	      0.04087788	    -23.33020412	    -13.00255531	    -19.77669631	     -8.78398504	      5.97638888	     33.85812871	    -10.61939155	     30.85757871	     12.10694206	      0.00156114	     63.92270238
      0.94000000	     -2.67482697	    -12.88125205	    -27.02342428	      0.01518722	     -0.01656907	      0.04151145	    -23.34036821	    -12.60053453	    -20.05075771	     -8.43272410	      5.77050544	     33.75336155	    -11.26952420	     30.71012795	     12.01492203	      0.00156114	     63.92270238
      0.96000000	     -2.86083526	    -13.07780504	    -27.33066753	      0.01720211	     -0.01651462	      0.04213697	    -23.38351571	    -12.53869556	    -20.14959964	     -8.38394128	      5.74979112	     33.74713018	    -13.11238776	     30.24172102	     13.73550009	      0.00156114	     63.92270238
      0.98000000	     -2.99121486	    -13.26930357	    -27.78527563	      0.01897374	     -0.01703091	      0.04283889	    -23.46077651	    -12.20069837	    -20.47742368	     -8.09447517	      5.58558563	     33.68145213	    -14.04439914	     30.14080882	     13.76075814	      0.00156114	     63.92270238
      1.00000000	     -3.21206108	    -13.49709224	    -28.16573891	      0.02086666	     -0.01727784	      0.04350878	    -23.50594537	    -12.03112738	    -20.60196477	     -7.97549270	      5.59992763	     33.63106909	    -15.62206220	     29.66436824	     15.64554819	      0.00156114	     63.92270238
      1.02000000	     -3.34757375	    -13.71203765	    -28.62804682	      0.02258461	     -0.01779942	      0.04423218	    -23.60036444	    -11.69838902	    -20.93216247	     -7.70151721	      5.47639576	     33.56879254	    -16.57533370	     29.58613186	     15.75119735	      0.00156114	     63.92270238
      1.04000000	     -3.55191129	    -13.95888446	    -29.01386878	      0.02442355	     -0.01813605	      0.04493283	    -23.67426996	    -11.47883013	    -21.08960798	     -7.56275239	      5.54816506	     33.49945660	    -18.11152572	     29.14499838	     17.57851086	      0.00156114	     63.92270238
      1.06000000	     -3.69870139	    -14.18794545	    -29.47423954	      0.02609852	     -0.01861147	      0.04564878	    -23.77201746	    -11.17859773	    -21.39578166	     -7.32175250	      5.45748383	     33.44707360	    -19.12548968	     29.09913191	     17.77179532	      0.00156114	     63.92270238
      1.08000000	     -3.86090034	    -14.45058527	    -29.93521678	      0.02776339	     -0.01912344	      0.04643267	    -23.85343036	    -10.86445363	    -21.68168640	     -7.06971095	      5.36796929	     33.38820384	    -20.09601283	     29.06469794	     18.00721373	      0.00156114	     63.92270238
